<svg xmlns="http://www.w3.org/2000/svg" width="24" height="24" fill="none" viewBox="0 0 64 64" class="web3icons">
    <defs>
        <clipPath id="CTUSD__clippath">
            <path d="M0 0h24v24H0z" style="fill:none"/>
        </clipPath>
        <style>
            .CTUSD__cls-2{fill:#fff}
        </style>
    </defs>
    <g id="CTUSD__Layer_1" style="clip-path:url(#CTUSD__clippath)">
        <path d="M42.8 26.8c.5-2.9.1-5.3-1.2-7.4-1.4-2.1-3.5-3.6-6.4-4.7l.7-2.7-2.7-.7-.7 2.6c-1.6-.3-3.1-.4-4.5-.4s-2.7.4-3.8.9-2.1 1.3-2.9 2.2q-1.2 1.5-1.8 3.6c-.4 1.6-.5 3-.2 4.2s.9 2.2 1.7 3.1 1.8 1.7 2.9 2.4c1.2.7 2.4 1.4 3.7 2.1l.2.1-2.2 8.4c-1.7-.6-2.8-1.5-3.5-2.5-.6-1-.9-2.4-.7-4l-6-1.6c-.7 3-.3 5.7 1.2 7.9s4.1 3.9 7.6 5.1l-1 3.8 2.7.7 1-3.8c1.6.3 3.1.4 4.6.3.4 0 .7 0 1-.1l4-7h3.7c.4-1.6.5-2.9.2-4.1s-.8-2.3-1.6-3.2-1.8-1.8-3-2.5-2.4-1.4-3.8-2.1c-.1 0-.2 0-.3-.1l2-7.7c1.1.5 1.9 1.3 2.5 2.2q.9 1.35.6 3.3l5.9 1.5Zm-16.5-2.9c-.6-.7-.7-1.6-.5-2.6q.45-1.5 1.8-2.1t3.6-.3l-1.9 7.2c-1.4-.8-2.4-1.6-3-2.3Zm7 11.9c.7.8.9 1.7.6 2.8-.2.6-.4 1.1-.8 1.5s-.8.7-1.3.9-1 .3-1.7.4h-1.9l2-7.8c1.4.8 2.4 1.5 3.1 2.3Zm15.6 11h-5.2c-.3 0-.7-.2-.8-.5-.2-.3-.2-.7 0-1l2.6-4.5 3.4 5.9Zm-6 1.6c.2-.3.5-.5.8-.5h5.2l-3.4 5.9-2.6-4.5c-.2-.3-.2-.7 0-.9m-2.6 1.5c.2-.3.5-.5.8-.5s.7.2.8.5l2.6 4.5h-6.8z" class="CTUSD__cls-2"/>
        <path d="M39.4 46.4c-.2.3-.5.5-.8.5h-5.2l3.4-5.9 2.6 4.5c.2.3.2.7 0 .9m-.8 1.5c.3 0 .7.2.8.5.2.3.2.7 0 1l-2.6 4.5-3.4-5.9h5.2Zm5.9-7.5-2.6 4.5c-.2.3-.5.5-.8.5s-.7-.2-.8-.5l-2.6-4.5z" class="CTUSD__cls-2"/>
    </g>
</svg>
