<svg xmlns="http://www.w3.org/2000/svg" width="24" height="24" fill="none" viewBox="0 0 64 64" class="web3icons">
    <g clip-path="url(#CTUSD__a)">
        <circle cx="32" cy="32" r="32" fill="#F7931A"/>
        <path fill="#fff" d="M42.78 26.762q.79-4.293-1.246-7.384c-1.36-2.057-3.496-3.612-6.414-4.657l.693-2.661-2.661-.694-.684 2.62q-2.383-.485-4.498-.37-2.11.11-3.804.875a8.3 8.3 0 0 0-2.924 2.221q-1.236 1.455-1.79 3.584-.624 2.396-.16 4.151a7.64 7.64 0 0 0 1.655 3.107q1.182 1.35 2.914 2.44a45 45 0 0 0 3.654 2.067q.036.054.211.103l-2.202 8.429c-1.668-.624-2.825-1.458-3.472-2.493q-.968-1.554-.665-3.987l-6.034-1.574q-1.047 4.562 1.237 7.88 2.282 3.324 7.646 5.102l-.998 3.814 2.661.694.984-3.772q2.382.485 4.554.337c.36-.023.707-.06 1.05-.117l4.038-6.995h3.734q.603-2.333.178-4.118a7.76 7.76 0 0 0-1.62-3.219q-1.196-1.42-2.967-2.525a45 45 0 0 0-3.785-2.104.6.6 0 0 1-.253-.112l2.005-7.675q1.594.797 2.464 2.184.872 1.386.605 3.307l5.898 1.542zm-16.51-2.91q-.886-1.061-.479-2.614.38-1.462 1.795-2.066 1.411-.599 3.598-.267l-1.888 7.229c-1.43-.815-2.436-1.574-3.027-2.282m7.013 11.971c.67.759.862 1.7.567 2.825h-.01c-.159.623-.426 1.12-.791 1.5q-.549.57-1.293.87a5.5 5.5 0 0 1-1.659.371 8 8 0 0 1-1.916-.098l2.028-7.764q2.068 1.159 3.074 2.296m15.596 11.01h-5.191a.9.9 0 0 1-.806-.459v-.01a.9.9 0 0 1 0-.946l2.582-4.516 3.415 5.927zm-6.02 1.542a.95.95 0 0 1 .81-.469h5.215l-3.415 5.932-2.605-4.517a.93.93 0 0 1 0-.946zm-2.568 1.48a.95.95 0 0 1 .81-.468c.329 0 .661.187.807.459l2.61 4.521h-6.832z"/>
        <path fill="#fff" d="M39.377 46.365a.95.95 0 0 1-.81.468h-5.215l3.415-5.931 2.61 4.521a.92.92 0 0 1 0 .942m-.811 1.541c.347 0 .656.178.806.46v.009a.9.9 0 0 1 0 .946l-2.605 4.517-3.415-5.932zm5.957-7.491-2.6 4.511a.95.95 0 0 1-.81.469c-.329 0-.657-.178-.807-.46l-2.628-4.52z"/>
    </g>
    <defs>
        <clipPath id="CTUSD__a">
            <path fill="#fff" d="M0 0h64v64H0z"/>
        </clipPath>
    </defs>
</svg>
