<?xml version="1.0" encoding="UTF-8"?>
<svg  width="24" height="24" viewBox="0 0 64 64" fill="none" xmlns="http://www.w3.org/2000/svg" xmlns:xlink="http://www.w3.org/1999/xlink" version="1.1">
  <defs>
    <style>
      .cls-1 {
        fill: none;
      }

      .cls-2 {
        fill: #fff;
      }

      .cls-3 {
        clip-path: url(#clippath);
      }
    </style>
    <clipPath id="clippath">
      <rect class="cls-1" width="24" height="24"/>
    </clipPath>
  </defs>
  <!-- Generator: Adobe Illustrator 28.7.3, SVG Export Plug-In . SVG Version: 1.2.0 Build 164)  -->
  <g>
    <g id="Layer_1">
      <g class="cls-3">
        <g>
          <path class="cls-2" d="M42.8,26.8c.5-2.9.1-5.3-1.2-7.4-1.4-2.1-3.5-3.6-6.4-4.7l.7-2.7-2.7-.7-.7,2.6c-1.6-.3-3.1-.4-4.5-.4-1.4,0-2.7.4-3.8.9-1.1.5-2.1,1.3-2.9,2.2-.8,1-1.4,2.2-1.8,3.6-.4,1.6-.5,3-.2,4.2.3,1.2.9,2.2,1.7,3.1.8.9,1.8,1.7,2.9,2.4,1.2.7,2.4,1.4,3.7,2.1,0,0,0,0,.2.1l-2.2,8.4c-1.7-.6-2.8-1.5-3.5-2.5-.6-1-.9-2.4-.7-4l-6-1.6c-.7,3-.3,5.7,1.2,7.9,1.5,2.2,4.1,3.9,7.6,5.1l-1,3.8,2.7.7,1-3.8c1.6.3,3.1.4,4.6.3.4,0,.7,0,1-.1l4-7h3.7c.4-1.6.5-2.9.2-4.1-.3-1.2-.8-2.3-1.6-3.2-.8-.9-1.8-1.8-3-2.5-1.2-.7-2.4-1.4-3.8-2.1-.1,0-.2,0-.3-.1l2-7.7c1.1.5,1.9,1.3,2.5,2.2.6.9.8,2,.6,3.3l5.9,1.5h0ZM26.3,23.9c-.6-.7-.7-1.6-.5-2.6.3-1,.9-1.7,1.8-2.1.9-.4,2.1-.5,3.6-.3l-1.9,7.2c-1.4-.8-2.4-1.6-3-2.3ZM33.3,35.8c.7.8.9,1.7.6,2.8h0c-.2.6-.4,1.1-.8,1.5-.4.4-.8.7-1.3.9-.5.2-1,.3-1.7.4-.6,0-1.3,0-1.9,0l2-7.8c1.4.8,2.4,1.5,3.1,2.3Z"/>
          <path class="cls-2" d="M48.9,46.8h-5.2c-.3,0-.7-.2-.8-.5h0c-.2-.3-.2-.7,0-1l2.6-4.5,3.4,5.9h0Z"/>
          <path class="cls-2" d="M42.9,48.4c.2-.3.5-.5.8-.5h5.2l-3.4,5.9-2.6-4.5c-.2-.3-.2-.7,0-.9h0Z"/>
          <path class="cls-2" d="M40.3,49.9c.2-.3.5-.5.8-.5s.7.2.8.5l2.6,4.5h-6.8l2.6-4.5Z"/>
          <path class="cls-2" d="M39.4,46.4c-.2.3-.5.5-.8.5h-5.2l3.4-5.9,2.6,4.5c.2.3.2.7,0,.9Z"/>
          <path class="cls-2" d="M38.6,47.9c.3,0,.7.2.8.5h0c.2.3.2.7,0,1l-2.6,4.5-3.4-5.9h5.2Z"/>
          <path class="cls-2" d="M44.5,40.4l-2.6,4.5c-.2.3-.5.5-.8.5s-.7-.2-.8-.5l-2.6-4.5h6.8Z"/>
        </g>
      </g>
    </g>
  </g>
</svg>