<svg width="24" height="24" viewBox="0 0 64 64" fill="none" xmlns="http://www.w3.org/2000/svg">
<g clip-path="url(#clip0_649_2121)">
<circle cx="32" cy="32" r="32" fill="#F7931A"/>
<path d="M42.7798 26.7618C43.3046 23.8992 42.8923 21.4394 41.5336 19.3779C40.1749 17.3211 38.0384 15.7656 35.1195 14.7208L35.8129 12.0596L33.1517 11.3662L32.4677 13.9852C30.8794 13.662 29.3801 13.5401 27.9699 13.6151C26.5643 13.6901 25.2946 13.9806 24.1655 14.4912C23.041 15.0019 22.0618 15.7422 21.2419 16.712C20.4173 17.6819 19.8223 18.8766 19.4522 20.2962C19.0352 21.8939 18.9836 23.276 19.2929 24.4473C19.6068 25.6139 20.1549 26.6541 20.9467 27.5536C21.7339 28.4532 22.7084 29.2684 23.8609 29.9946C25.0135 30.7208 26.2317 31.4095 27.5154 32.0608C27.5388 32.0983 27.6091 32.1311 27.7262 32.1639L25.5242 40.5926C23.8563 39.9694 22.699 39.1355 22.0525 38.1C21.4059 37.0646 21.1857 35.734 21.3872 34.1129L15.3526 32.5387C14.6545 35.5794 15.0668 38.2078 16.5895 40.4192C18.1122 42.6353 20.6609 44.336 24.2358 45.5214L23.2378 49.3352L25.899 50.0286L26.8829 46.257C28.4712 46.5803 29.9892 46.6927 31.4369 46.5943C31.7977 46.5709 32.1444 46.5334 32.4864 46.4772L36.5251 39.4822H40.2592C40.6621 37.9267 40.7183 36.5539 40.4372 35.3639C40.1514 34.1691 39.6126 33.0962 38.8161 32.1451C38.0197 31.1987 37.0311 30.3554 35.8504 29.6198C34.6697 28.8842 33.4047 28.1814 32.0648 27.5161C31.9476 27.488 31.8633 27.4505 31.8118 27.4037L33.817 19.7293C34.8806 20.2587 35.7005 20.9896 36.2814 21.9126C36.8624 22.8356 37.0639 23.9413 36.8858 25.2204L42.7845 26.7618H42.7798ZM26.2691 23.8523C25.6788 23.1448 25.5195 22.2734 25.7913 21.238C26.0443 20.2634 26.644 19.5747 27.5857 19.1718C28.5274 18.7735 29.7268 18.6845 31.1839 18.9047L29.2958 26.134C27.8668 25.3188 26.8595 24.5598 26.2691 23.8523ZM33.2829 35.823C33.9529 36.582 34.145 37.5238 33.8498 38.6482H33.8405C33.6812 39.2713 33.4141 39.768 33.0487 40.1475C32.6832 40.527 32.2522 40.8175 31.7555 41.0189C31.2636 41.2204 30.7107 41.3422 30.097 41.3891C29.4832 41.4359 28.846 41.4031 28.1807 41.2907L30.2094 33.5273C31.5869 34.3003 32.6129 35.064 33.2829 35.823Z" fill="white"/>
<path d="M48.8782 46.8333H43.687C43.3403 46.8333 43.0311 46.6553 42.8811 46.3742V46.3648C42.7031 46.0743 42.7031 45.7136 42.8811 45.4184L45.4627 40.9018L48.8782 46.8286V46.8333Z" fill="white"/>
<path d="M42.8579 48.3748C43.0313 48.0843 43.3405 47.9062 43.6685 47.9062H48.8831L45.4676 53.8377L42.8626 49.3212C42.6893 49.0307 42.6893 48.6652 42.8626 48.3748H42.8579Z" fill="white"/>
<path d="M40.2904 49.8553C40.4637 49.5648 40.7729 49.3867 41.1009 49.3867C41.4289 49.3867 41.7615 49.5742 41.9068 49.8459L44.5164 54.3671H37.6854L40.2904 49.8553Z" fill="white"/>
<path d="M39.3767 46.3648C39.2034 46.6553 38.8942 46.8333 38.5662 46.8333H33.3516L36.7671 40.9018L39.3767 45.4231C39.5501 45.7136 39.5501 46.0743 39.3767 46.3648Z" fill="white"/>
<path d="M38.5662 47.9062C38.9129 47.9062 39.2221 48.0843 39.3721 48.3654V48.3748C39.5501 48.6652 39.5501 49.026 39.3721 49.3212L36.7671 53.8377L33.3516 47.9062H38.5662Z" fill="white"/>
<path d="M44.5229 40.4145L41.9226 44.9264C41.7493 45.2168 41.4401 45.3949 41.1121 45.3949C40.7841 45.3949 40.4562 45.2168 40.3062 44.9357L37.6778 40.4145H44.5229Z" fill="white"/>
</g>
<defs>
<clipPath id="clip0_649_2121">
<rect width="64" height="64" fill="white"/>
</clipPath>
</defs>
</svg>
